<svg xmlns="http://www.w3.org/2000/svg" viewBox="0 0 431.91 289.68"><defs><style>.cls-1{fill:#ef5350;}.cls-2{fill:#707070;}.cls-3{fill:#d14a4a;}.cls-4{fill:#e4eced;}.cls-5{fill:#fe9764;}.cls-6{fill:#333d45;}.cls-7{fill:#ebf4f5;}.cls-8{fill:#ff6e6e;}.cls-9{fill:#8e3636;}.cls-10{fill:#b24242;}.cls-11{fill:#636263;}.cls-12{fill:#a2babd;}.cls-13{fill:#bfd8db;}.cls-14{fill:#d8ebed;}</style></defs><title>Asset 7</title><g id="Layer_2" data-name="Layer 2"><g id="Layer_1-2" data-name="Layer 1"><path class="cls-1" d="M359.46,136.64l-4-2.94,3.14-6.41a27.92,27.92,0,0,1-4.28-5.36l-7,1.58-2-4.54,6-4a27.57,27.57,0,0,1-1-6.75l-6.81-2.12.55-4.9,7.12-.52a27.4,27.4,0,0,1,2.52-6.35l-4.86-5.24,2.94-4,6.42,3.14A27.94,27.94,0,0,1,363.57,84L362,77l4.52-2,4,6a27.12,27.12,0,0,1,6.75-1l2.1-6.82,4.92.56.5,7.12a27.15,27.15,0,0,1,6.38,2.51l5.23-4.85,4,2.93-3.14,6.42a27.69,27.69,0,0,1,4.28,5.36l6.93-1.58,2,4.52-6,4a27.58,27.58,0,0,1,1,6.76l6.81,2.1-.56,4.91-7.11.5a27.44,27.44,0,0,1-2.52,6.38L407,126,404,130l-6.42-3.11a27.64,27.64,0,0,1-5.36,4.27l1.58,6.94-4.53,2-4-6a27.58,27.58,0,0,1-6.76,1l-2.08,6.8-4.89-.56-.52-7.12a27,27,0,0,1-6.36-2.52l-5.23,4.86Zm7.81-14.71a17.85,17.85,0,0,1-6.58-9.53l-5.05.76A22.91,22.91,0,0,0,379,130.5l-.74-5.07A17.72,17.72,0,0,1,367.27,121.93Zm-7.22-14a17.88,17.88,0,0,1,13-17.61l-.74-5.06A22.92,22.92,0,0,0,355,108.68l5.07-.74Zm17.41-18.25a17.86,17.86,0,0,1,17.61,13l5.06-.74a22.94,22.94,0,0,0-23.41-17.35l.74,5.08Zm18.25,17.41a17.86,17.86,0,0,1-13,17.61l.76,5a22.93,22.93,0,0,0,17.35-23.4l-5.08.74Zm-31,2.38a13.36,13.36,0,1,0,2.48-9.88,13.22,13.22,0,0,0-2.44,9.92Z"/><path class="cls-1" d="M318,156.93l-2.16-2.36,2.78-3.7a17,17,0,0,1-2-4L312,147l-.73-3.11,4.25-1.8a17.68,17.68,0,0,1,.2-4.42l-4-2.18,1-3.06,4.58.56a18.37,18.37,0,0,1,2.38-3.72l-2.42-4,2.36-2.14,3.68,2.78a17,17,0,0,1,4-2l-.14-4.62,3.11-.68,1.8,4.24a19.23,19.23,0,0,1,4.42.2l2.2-4,3,1-.56,4.58a18.11,18.11,0,0,1,3.73,2.4l4-2.44,2.16,2.36-2.78,3.69a19.42,19.42,0,0,1,2,4l4.6-.14.7,3.12-4.26,1.82a18.19,18.19,0,0,1-.2,4.42l4,2.17-1,3.06-4.58-.58a17.43,17.43,0,0,1-2.38,3.74l2.42,4-2.34,2-3.67-2.78a18.25,18.25,0,0,1-4,2l.14,4.61-3.12.68-1.8-4.23a18.88,18.88,0,0,1-4.44-.22l-2.18,4-3-1,.56-4.57a18.33,18.33,0,0,1-3.74-2.4l-4,2.44Zm4.38-6.18a14.85,14.85,0,1,0,1-21l0,0A14.83,14.83,0,0,0,322.42,150.75Z"/><path class="cls-1" d="M309.31,121.17l-3.3-2,1.84-5.2a21.3,21.3,0,0,1-3.74-3.73l-5.18,1.82-2-3.3,4.18-3.58a21.47,21.47,0,0,1-1.36-5.1l-5.39-1V95.27l5.41-1a21.47,21.47,0,0,1,1.36-5.1L297,85.57l2-3.28,5.2,1.82a20.85,20.85,0,0,1,3.74-3.71l-1.82-5.2,3.3-1.9L313,77.5a21,21,0,0,1,5.1-1.36l1-5.42h3.8l1,5.4A20.41,20.41,0,0,1,329,77.5l3.6-4.18,3.28,2L334,80.5a21.18,21.18,0,0,1,3.72,3.73l5.2-1.82,1.89,3.3-4.19,3.58a22,22,0,0,1,1.36,5.1l5.41,1v3.81l-5.39,1a21.39,21.39,0,0,1-1.38,5.1l4.17,3.58-2,3.3-5.18-1.84a21.3,21.3,0,0,1-3.74,3.73l1.82,5.18-3.3,1.9L328.85,117a21.27,21.27,0,0,1-5.09,1.36l-1,5.4h-3.82l-1-5.4a22,22,0,0,1-5.1-1.38Zm4.73-12a13.74,13.74,0,1,0-6.39-8.36A13.73,13.73,0,0,0,314,109.18Zm-3-9.24a10.26,10.26,0,1,0,1-7.77A10.27,10.27,0,0,0,311.09,99.94Zm1,12.66a17.67,17.67,0,1,0-6.41-24.16h0A17.7,17.7,0,0,0,312.12,112.6Z"/><path class="cls-1" d="M136.25,137.92h92.59v30.62H136.25ZM199.6,12c6-19.29,40.89-15.11,41.69,11,4.14-2.92,20-2.26,22.47,13.05.73,4.48,2,21.61-13.3,21.61H175.91c-14.23,0-16.27-7.86-16.27-15.23,0-9.35,10-14.65,18.37-13C170.29,16.78,187.36,4.9,199.6,12ZM148,20c-14.39-8.35-34.48,5.62-25.39,20.53-10-2-21.62,4.28-21.62,15.29,0,8.68,2.4,18,19.16,18h60.31v4.68h4.27V73.8h23.13c8.77,0,12.91-4.82,14.75-10.35H174c-14,0-21.31-6.5-21.31-20.19,0-10,8.32-16.89,17.53-18a15.44,15.44,0,0,1,.72-7.74,18.32,18.32,0,0,1,8.36-9.73C166.92,3.2,152,7.2,148,20.07Zm-11.7,69.8h92.59v30.6H136.25Zm44.16-6.54h4.27v4.82h-4.27Zm0,38.66h4.27v4.84h-4.27v-4.84Zm0,9.67h4.27v4.82h-4.27Z"/><path class="cls-2" d="M93,287.83c4.7,2.85,12.13.48,16.83,0A7.34,7.34,0,0,0,115,288c2.14-.44,1.72-5.68,1.1-8.84a30.65,30.65,0,0,1,0-7.29l-8.94-2.28c.42,4.57.86,6.17-.3,8.13-2.4,4-7.61,4.32-11.11,4.46C90.28,282.43,89.92,286,93,287.83Z"/><path class="cls-3" d="M123.42,195.7c1.68-6.65,2-9.21,1.28-13.57a44,44,0,0,0-5.27-13.57l-18.11,3.9-.68,17.59,3,32.8,1.77,55.08,12.4,1.28,2.65-38.75-3.51-18C117.75,213.43,121.42,203.14,123.42,195.7Z"/><path class="cls-2" d="M104.11,288.43c4.7,2.73,12.14.18,16.83-.36a7.39,7.39,0,0,0,5.12,0c2.16-.48,1.72-5.72,1.1-8.86a31.74,31.74,0,0,1,0-7.29l-8.93-2c.42,4.57.88,6.15-.3,8.13-2.4,4.1-7.62,4.5-11.1,4.72C101.44,283.05,101,286.61,104.11,288.43Z"/><path class="cls-1" d="M130.42,195.7c1.42-6.65,1.72-9.21.78-13.57a45.13,45.13,0,0,0-5.78-13.57l-18.49,5-.16,15.77,1.58,6,3.08,27.11.2,1.6,4.58,55.48,12.43,1.28.78-40.29-2-18.39A179.82,179.82,0,0,1,130.42,195.7Z"/><path class="cls-4" d="M116.19,107.06c1.82,3.68,1.62,3.28,5.59,5.08,6.42,2.87,8,4.93,9.82,8.09,4,7-2.76,28.7-5.74,49.27-5.26,5.5-23.1,6.74-24.88,6.16-.8-8.5-3.84-16.29-6-26.75a95.06,95.06,0,0,1-2.22-23.18c.26-6,1.68-7.56,5.76-10.3,3.34-2.26,4.72-4.67,7.21-8.29Z"/><path class="cls-5" d="M116.21,106.86l-7.88,10.75-2-2c-3.45-7.41-2-7-3-15.19l10.27-6c.36,2.91,1.12,4.23,1.64,7.39A41.92,41.92,0,0,0,116.21,106.86Z"/><path class="cls-6" d="M107.09,116.15l1,5.74a24.61,24.61,0,0,0-1.52,3.44l1.06,6.59c-.7,7.62-1.52,22.79-2.3,29.36-.72-5.67-2.47-26.38-2.51-29.56l1.71-6.43a22.64,22.64,0,0,0-.87-4,12.76,12.76,0,0,1,2.81-5.36Z"/><path class="cls-7" d="M106.81,116.07a65,65,0,0,1,1,7.74,36.06,36.06,0,0,0,9.64-14.27,8.49,8.49,0,0,0-1.36-4C115.43,108.12,113,112.24,106.81,116.07Z"/><path class="cls-7" d="M107,116.05c-1.38-1.38-2.66-6.57-2.8-8.31l-1.55,4.48a27.55,27.55,0,0,0,1,9.21A19.87,19.87,0,0,1,107,116.05Z"/><path class="cls-5" d="M95.74,104.6a1.24,1.24,0,0,1-.14,1.54,1,1,0,0,0,1,.9,1.14,1.14,0,0,0,0,1.54c.42,0,.64.1.74.28.3.6-.52,2.12.66,3s6.49-3.26,8.87-5.24c2-1.62.88-3,0-5.34,1.32-.14,2.2-.76,1.78-2.76a29.37,29.37,0,0,0,1.62-7.69s-6.73-9.59-7-9.59S95,84.27,95,84.27c-.6,1.82-1.88,3.68-2.46,5.8a17.22,17.22,0,0,0,0,6.48,2.65,2.65,0,0,0,.6,2,2.83,2.83,0,0,1,.48.72c.5,2-1,4.28-.8,4.82A2.33,2.33,0,0,0,95.74,104.6Z"/><path class="cls-2" d="M92.28,93.37c1-1.76,4.66-6,7.24-3.8.6.5-.54,1.12.14,2.72.48,1.1,1.28,1.42,1.78,2.32.72,1.28.34,2.12,1.62,4l.93-.68c.62-1.41,2.14-4.67,4-4.57,1.36.1,1.48,2.52,1,4.35a3,3,0,0,0,.38,2.4c.84,1.12,1.86.18,3.42,1.06a17.23,17.23,0,0,1,2.94,2.72,18.71,18.71,0,0,1,.44-6.95c1.06-3.86-.42-11.44-4.38-12.7a10.56,10.56,0,0,0-11.25-3.15C95,82.59,90.14,87.49,92.28,93.37Z"/><path class="cls-1" d="M17.49,69.84l31.56,8.48,26.88,7.21V274.11l-26.86,7.16-31.58,8.39V69.84Z"/><path class="cls-3" d="M21,78.38l28,7,24.26,6v22L49,108.9l-28-5.14Z"/><path class="cls-8" d="M24.28,89.83l20.21,4.48,18.21,4v3.64L44.49,98.1,24.28,94Z"/><path class="cls-8" d="M24.28,82.27l20.21,4.88,18.21,4.4v3.62L44.49,91,24.28,86.31Z"/><path class="cls-8" d="M24.28,97.36l20.21,4L62.7,105v3.6l-18.21-3.48-20.21-3.78Z"/><path class="cls-8" d="M68,98.46a3.23,3.23,0,0,1,2,3.24c0,1.56-.84,2.66-2,2.42a3.22,3.22,0,0,1-2-3.26C66.08,99.3,67,98.22,68,98.46Z"/><polygon class="cls-9" points="20.07 140.86 74.17 144.36 74.25 171.72 20.07 170.64 20.07 140.86"/><path class="cls-3" d="M73.31,119l-24.26-4-28-4.67v25.48l28,2.82,24.26,2.46Z"/><path class="cls-8" d="M70.84,127.93l-17.37-2.38-19.21-2.7v4l19.21,2.39,17.33,2.24Z"/><path class="cls-8" d="M70.84,121.33l-17.37-2.76-19.21-3.06v4l19.21,2.78,17.33,2.58Z"/><path class="cls-8" d="M70.84,134.54l-17.33-2-19.21-2.3v4l19.21,2,17.33,2Z"/><path class="cls-8" d="M27.84,120.79c-1.34-.2-2.44,1.06-2.44,2.84a3.35,3.35,0,0,0,2.44,3.48c1.34.16,2.42-1.1,2.42-2.84A3.35,3.35,0,0,0,27.84,120.79Z"/><polygon class="cls-10" points="21.03 142.86 63.92 144.51 63.92 170.04 21.03 168.34 21.03 142.86"/><path class="cls-3" d="M73.31,174.82H21V200.3l28-1.82,24.24-1.58Z"/><path class="cls-8" d="M70.86,184.13l-17.35.48-19.21.52v4l19.21-.72,17.35-.64Z"/><path class="cls-8" d="M70.86,177.51l-17.35.14-19.21.14v3.9l19.21-.34,17.35-.3Z"/><path class="cls-8" d="M70.86,190.77l-17.35.8-19.21.9v4l19.17-1.18,17.35-1Z"/><path class="cls-8" d="M27.84,184.13a3,3,0,0,0-2.36,3.24c0,1.78,1.1,3.14,2.44,3.08a3,3,0,0,0,2.42-3.22C30.26,185.47,29.18,184.11,27.84,184.13Z"/><path class="cls-3" d="M21,207.72l28-2.36,24.24-2v22L49.07,229l-28,4.2Z"/><path class="cls-8" d="M24.28,218.07l20.23-2.2,18.21-2v3.62l-18.21,2.24-20.23,2.38Z"/><path class="cls-8" d="M24.28,210.53l20.23-1.85L62.72,207v3.59l-18.21,1.88-20.23,2Z"/><path class="cls-8" d="M24.28,225.6,44.51,223l18.21-2.4v3.62l-18.21,2.59-20.23,2.86Z"/><path class="cls-8" d="M68,212.13c1.08-.12,2,1,2,2.6s-.86,2.92-2,3.06-2-1-2-2.6S67,212.25,68,212.13Z"/><path class="cls-3" d="M73.31,230.94l-24.24,4-28,4.68v25.5l28-6.52L73.31,253Z"/><path class="cls-8" d="M70.86,240.7l-17.39,3.37L34.3,247.85v3.9l19.17-3.9,17.35-3.54Z"/><path class="cls-8" d="M70.86,234.06l-17.39,3-19.21,3.36v4l19.21-3.63,17.35-3.2Z"/><path class="cls-8" d="M70.86,247.33,53.47,251l-19.21,4.12v4l19.21-4.39,17.35-3.9Z"/><path class="cls-8" d="M27.84,247.85a3.67,3.67,0,0,0-2.36,3.68c0,1.74,1.1,3,2.44,2.68a3.68,3.68,0,0,0,2.42-3.66C30.26,248.83,29.18,247.61,27.84,247.85Z"/><polygon class="cls-10" points="17.49 70 0 76.8 0 283.91 17.49 289.67 17.49 70"/><path class="cls-3" d="M63.92,144.52l28,2.31,24.25,2v22l-24.25-.4-28-.5Z"/><path class="cls-8" d="M67.18,155.41l15,.84v3.86l-15-.68v-4Zm0-7.56,15,1.14v3.88l-15-1v-4.06Zm0,15.09,15,.54v3.86l-15-.38Z"/><path class="cls-8" d="M110.93,156.77c1.08,0,2,1.38,2,2.92s-.86,2.79-2,2.75-2-1.35-2-2.93S109.87,156.71,110.93,156.77Z"/><rect class="cls-10" x="83.61" y="148.77" width="8.23" height="18.83"/><polygon class="cls-10" points="91.84 148.77 97.64 148.77 97.64 167.6 91.84 167.6 91.84 166.36 96.02 166.36 96.02 150.03 91.84 150.03 91.84 148.77"/><path class="cls-7" d="M136.91,137.74c1.48,6.18,3.72,17.79,2.24,20.23a4.49,4.49,0,0,1-3.65,2.1c-3.54-.12-3.7-4-9.56-18-2-4.76-4.48-9.78-5.54-13.07-2.21-6.92-1.57-11.08,3.34-12.54C132.56,113.93,135.16,132.62,136.91,137.74Z"/><path class="cls-5" d="M112,152.87l-3.68.44c-4,.56-3.74,0-5.07-1a4.67,4.67,0,0,0-3.38-.62,33.55,33.55,0,0,0-6,.62c-.56.16-.48.88-.44,1.4a.87.87,0,0,0,.66.88h.72c-.44.12-.88.16-1,.24a2.87,2.87,0,0,0,.12,2c.16.16.58,0,1,0a4.2,4.2,0,0,0-.78.26c-.38.22-.24,2.2.42,2.16h1.4c-.66.22-1,.3-1.2.54s-.22,1.59.58,1.67a15,15,0,0,0,2.68,0l3.88-.12a10.45,10.45,0,0,0,2.89-.35,22.71,22.71,0,0,1,7.3-3.12Z"/><path class="cls-7" d="M136,160.09c-9.52,1.59-19.31.22-29.17.6-.68-3.06-.78-6.28-1.16-7.86,0,0,19-2.16,27-4.12C138.51,147.27,142.41,158.89,136,160.09Z"/><rect class="cls-2" x="272.11" y="189.81" width="8.73" height="99.88"/><rect class="cls-2" x="186" y="189.81" width="8.73" height="99.88"/><polygon class="cls-2" points="282.38 182.79 184.49 182.79 178.37 199.94 288.5 199.94 282.38 182.79"/><rect class="cls-11" x="178.37" y="199.74" width="110.13" height="9.97"/><polygon class="cls-3" points="267.73 147.93 199.14 147.93 193.08 161.47 273.79 161.47 267.73 147.93"/><rect class="cls-3" x="193.1" y="161.24" width="80.65" height="33.82"/><rect class="cls-1" x="197.92" y="166.48" width="71.04" height="23.33"/><rect class="cls-8" x="214.05" y="176.3" width="51.07" height="3.72"/><rect class="cls-8" x="214.05" y="169.34" width="51.07" height="3.72"/><rect class="cls-8" x="214.05" y="183.25" width="51.07" height="3.72"/><path class="cls-8" d="M206.07,175.2a3,3,0,1,0,2.94,3v0a2.94,2.94,0,0,0-2.94-2.93Z"/><polygon class="cls-1" points="206.09 146.33 201.91 146.33 195.84 159.87 200.63 159.87 206.09 146.33"/><polygon class="cls-10" points="206.09 146.33 206.09 146.57 206.09 161.25 200.57 161.25 200.63 159.87 206.09 146.33"/><polygon class="cls-3" points="195.82 161.25 195.84 159.87 200.63 159.87 200.59 161.25 195.82 161.25"/><path class="cls-10" d="M269.19,161.25a20,20,0,0,0-7.57-9.36A18.32,18.32,0,0,0,251.5,149a18,18,0,0,0-9.87,3.18,18.56,18.56,0,0,0-6.86,9.06H236a17.27,17.27,0,0,1,6.26-8,16.49,16.49,0,0,1,9.23-3A16.94,16.94,0,0,1,261,153a18.78,18.78,0,0,1,6.91,8.35Z"/><path class="cls-10" d="M266.19,161.25a16.51,16.51,0,0,0-6.21-7.6,14.89,14.89,0,0,0-16.63.26,15.38,15.38,0,0,0-5.64,7.35H239a14.1,14.1,0,0,1,5-6.37,13.76,13.76,0,0,1,15.27-.22,15.09,15.09,0,0,1,5.55,6.59Z"/><path class="cls-10" d="M272.51,161.25a25,25,0,0,0-9.17-11.34,20.92,20.92,0,0,0-23.43.34,23.67,23.67,0,0,0-8.47,10.93h1.27a22.38,22.38,0,0,1,7.86-10,19.72,19.72,0,0,1,22.13-.32,23.76,23.76,0,0,1,8.59,10.28Z"/><path class="cls-1" d="M267.13,161.25a17.54,17.54,0,0,0-6.67-8.2,16,16,0,0,0-17.61.26,16.45,16.45,0,0,0-6,8H238a15.27,15.27,0,0,1,5.52-7.07,14.59,14.59,0,0,1,8.13-2.6,14.93,14.93,0,0,1,8.32,2.36A16.39,16.39,0,0,1,266,161.3Z"/><path class="cls-1" d="M264.49,161.25a14.38,14.38,0,0,0-5.47-6.66,13.19,13.19,0,0,0-14.59.2,13.46,13.46,0,0,0-5,6.46h1.12a12.48,12.48,0,0,1,4.42-5.6,12.14,12.14,0,0,1,13.45-.18,13.37,13.37,0,0,1,4.9,5.78Z"/><path class="cls-1" d="M270.05,161.25a21.94,21.94,0,0,0-8.13-9.88,18.55,18.55,0,0,0-20.65.28,20.84,20.84,0,0,0-7.46,9.6h1.12a19.72,19.72,0,0,1,6.94-8.74,17.47,17.47,0,0,1,19.49-.26,20.62,20.62,0,0,1,7.55,9Z"/><path class="cls-1" d="M260,161.25a11.5,11.5,0,0,0-2.46-2.56,9.15,9.15,0,0,0-11.57.2,10.78,10.78,0,0,0-2.16,2.36h.9a10.15,10.15,0,0,1,1.64-1.7,8.62,8.62,0,0,1,10.83-.18,10.17,10.17,0,0,1,2,1.88Z"/><path class="cls-1" d="M258,161.25a8.83,8.83,0,0,0-1.44-1.36,7.56,7.56,0,0,0-9.61.16,6.81,6.81,0,0,0-1.2,1.2h1l.6-.54a7,7,0,0,1,8.83-.14,6.4,6.4,0,0,1,.8.68Z"/><path class="cls-1" d="M262,161.25a15.06,15.06,0,0,0-3.5-3.88,10.69,10.69,0,0,0-13.59.24,14.59,14.59,0,0,0-3.14,3.64h.86a13.34,13.34,0,0,1,2.68-3,10,10,0,0,1,12.83-.2,13.86,13.86,0,0,1,3,3.18Z"/><polygon class="cls-1" points="216.82 146.33 212.63 146.33 206.57 159.87 211.35 159.87 216.82 146.33"/><polygon class="cls-10" points="216.82 146.33 216.82 146.57 216.82 161.25 211.31 161.25 211.35 159.87 216.82 146.33"/><polygon class="cls-3" points="206.55 161.25 206.57 159.87 211.35 159.87 211.33 161.25 206.55 161.25"/><polygon class="cls-1" points="227.4 146.33 223.22 146.33 217.14 159.87 221.94 159.87 227.4 146.33"/><polygon class="cls-10" points="227.4 146.33 227.42 146.57 227.42 161.25 221.9 161.25 221.94 159.87 227.4 146.33"/><polygon class="cls-3" points="217.14 161.25 217.14 159.87 221.94 159.87 221.92 161.25 217.14 161.25"/><path class="cls-12" d="M298.33,125.31c-1.12,4.61-3.07,7.43-4.21,11.11-1.66,5.42-4,5.42-5.78,5.6-4,.34-6.9-6.26-5.78-7.48,3.56-9.27,2-14.85,6-23.72,1.66-3.74,2.46-2,6.48-.72C304,112.94,299.49,120.51,298.33,125.31Z"/><path class="cls-12" d="M287.32,143.18l-25.06-8.72a15.15,15.15,0,0,0-2.34-6.57,47.59,47.59,0,0,1,7.55.28c8.18.94,20.09,2.87,20.47,3C292.46,132.48,293.32,145.08,287.32,143.18Z"/><path class="cls-2" d="M298.67,287.83c4.6,2.77,11.9.46,16.51,0a7.17,7.17,0,0,0,5,.14c2.1-.44,1.68-5.58,1.06-8.66a31.66,31.66,0,0,1,0-7.15l-8.78-2.24c.42,4.47.86,6-.28,8-2.35,4-7.47,4.22-10.89,4.36C296,282.57,295.64,286.05,298.67,287.83Z"/><path class="cls-3" d="M328.39,187.29c1.64-6.54,2-9,1.24-13.31a42.07,42.07,0,0,0-5.15-13.29l-21.75,6.49.6,12.45L309,219l1.8,59.12L323,279.43l2.62-43.15-3.46-17.55C322.9,209.87,326.58,194.56,328.39,187.29Z"/><path class="cls-2" d="M306.23,288.45c4.6,2.67,11.89.18,16.49-.36a7.17,7.17,0,0,0,5,0c2.09-.46,1.65-5.6,1.05-8.68a31.66,31.66,0,0,1,0-7.15l-8.75-2c.4,4.47.86,6-.3,8-2.34,4-7.48,4.4-10.89,4.62C303.51,283.19,303.17,286.67,306.23,288.45Z"/><path class="cls-1" d="M332,187.29c1.4-6.54,1.68-9,.76-13.31a44.12,44.12,0,0,0-5.65-13.29l-21.51,6.49,2,7,.88,6.83,2,5.84,3,31.74.2,1.56,4.48,59.54,6.44,1.1h5.65l.86-44.57-2-18A258.26,258.26,0,0,1,332,187.29Z"/><path class="cls-13" d="M323.12,143.92c.24,2.91,5.11,17.11,6.19,21-9.63,3.72-17.33,4-27.4,5.62-.34-2.88-1-11.75-3.52-17.37-10.17-22.39-17.47-33.56-12.71-44.11,2-3.44,5.62-10.5,9.9-10a25.77,25.77,0,0,1,19.4,12.2C320.74,120.33,320.3,132.38,323.12,143.92Z"/><path class="cls-5" d="M296.93,99c.78,4.56-1.57,9.8-5.65,13.68-3.22-1-11.06-10.86-12.89-12.6l7.37-7.41Z"/><path class="cls-5" d="M273,104.38a1.27,1.27,0,0,1,.38,1.52,1,1,0,0,0,1.22.52c1.58-1.3,1.72.22,1.6.34-1.14,1-.66,1.3-.18,1.54a.73.73,0,0,1,.8,0c.48.46.24,2.18,1.62,2.58,1.67.46,5-5.3,6.63-8,1.3-2.22-.22-3.12-1.8-5.06,1.2-.58,1.82-1.47.74-3.21a29.27,29.27,0,0,0-1.1-7.84s-9.61-6.77-9.87-6.67-6.78,5.71-6.78,5.71c0,2-.52,4.12-.36,6.32a17.69,17.69,0,0,0,1.48,5.63,2.67,2.67,0,0,0,1.26,1.72,2.77,2.77,0,0,1,.7.52c1.16,1.74.46,4.4.88,4.82A2.37,2.37,0,0,0,273,104.38Z"/><path class="cls-2" d="M276.63,94.51a22.89,22.89,0,0,0,1.64,1.78c.44.54.68.84,1,.88a8.33,8.33,0,0,0,.22-3.18c.24-1.66.73-3.6,2-4s2.26,1.86,2.44,3.78a2.89,2.89,0,0,0,1.16,2.14c1.2.78,1.82-.46,3.6-.18a16.88,16.88,0,0,1,3.72,1.57,18.91,18.91,0,0,1-2-6.73c-.26-3.32-3-8.46-6.36-10h.28A9.29,9.29,0,0,0,278,79.2a8.75,8.75,0,0,0-8.5,1.32,9.35,9.35,0,0,1,2.88-.84c-9.75,4.21-7.32,12.21-10.21,13.21,4,2,6.11.14,8.75-2.5a8,8,0,0,1,5.46,5l.14-1Z"/><path class="cls-14" d="M309.75,131.56c-1.06,4.78-2.38,9.26-3.46,13.12s-1.32,6.31-3.14,7c-4.56,1.8-11.51-4.36-11.15-4.82l4-5.13c.66-.84.22-5.2.44-19.61.18-13,3.2-18.19,10-17.09C315.18,106.52,310.87,126.59,309.75,131.56Z"/><path class="cls-5" d="M254.84,146.71l8.76,3.78,8.33-1.86,5,.34,2.8-5.47h-6.54a21.58,21.58,0,0,0-4.22-1.34c-1.78-.18-1.9.48-5.25,1.32l-9-1Z"/><path class="cls-14" d="M301.09,152.43c-9.47.5-20-2.48-29.54-3a13.13,13.13,0,0,0,0-7.35s20.75-.34,28.78-1.2c.84,0,1.78-.52,3.58,2.8C305.31,146.51,306,152.19,301.09,152.43Z"/><path class="cls-5" d="M249.34,129.76l3.6-2.13c.34-.2,4.64,3.39,2.88,3.71l-2.48.58-2.74,2.72a7.71,7.71,0,0,1-3.37.36h0a.79.79,0,0,1-.3-1.08A17.29,17.29,0,0,1,249.34,129.76Z"/><path class="cls-5" d="M245.55,133.92l2.32-4v-.12a1.67,1.67,0,0,1,.51-.48l3.76-2.23,1.58-.34c.48-.12-.22.2,0,.7.24.86,1.7,1.54-.48,2.23l-3.82,1.24-2.25,4a1,1,0,1,1-1.62-1Z"/><polygon class="cls-3" points="273.13 132.28 204.53 132.28 198.48 145.81 279.19 145.81 273.13 132.28"/><path class="cls-5" d="M253.92,135l-.24-1.86c0-.3,2.56-2.58-1-3.3-.62-.12-1-2.71-.4-2.87a13.2,13.2,0,0,1,3.58-.58,12.2,12.2,0,0,1,4.42,1.72l6.33.26-1.38,3.27-3,1.7c-.54.3-1.14,1.58-2,1.7l-4.44.64C255.16,135.8,254,135.66,253.92,135Z"/><path class="cls-5" d="M247.51,135.48h0a1.12,1.12,0,0,1,.77-1.34c1.9-.48,4-.72,5.88-1.32l1.7-.64a1.06,1.06,0,0,1,1.32.71s0,.05,0,.07h0c.14.58-.62.74-.78,1.32l-.34,1.2-7.24.78A1.17,1.17,0,0,1,247.51,135.48Z"/><path class="cls-12" d="M273.13,132.28l-11.19,1.34a21.09,21.09,0,0,0-2-5.73,40.54,40.54,0,0,1,7.55.28l7.12.92Z"/><path class="cls-1" d="M35.3,57.39,34.76,63H49.93l-.46-5.62ZM62.24,23c6.68,2.82,11.55,4.56,18.21,3.84C80.45,48,69.16,58.31,62,63h0c-7.21-4.7-18.51-15-18.51-36.18,6.66.72,11.52-1,18.19-3.84ZM75.53,43A34.31,34.31,0,0,1,62,60.67h0V43H48.39V42.7a43.63,43.63,0,0,1-2-14c5.68.64,9.81-1,15.49-3.5h.22V42.92ZM69.84,12.8h-55a2.58,2.58,0,0,0-2.56,2.62V52.55a2.56,2.56,0,0,0,2.56,2.54H48.39l-3.3-7.55H14.33V15.08h56v8l2,.62V15.34a2.56,2.56,0,0,0-2.45-2.52Z"/><path class="cls-1" d="M416.6,155.31h-.22v8.21h.22a7.09,7.09,0,0,1,.75,14.17,4.7,4.7,0,0,1-.75,0h-.22v8.2h.22a15.31,15.31,0,1,0,0-30.62h0Zm-2.24,0H385v30.76h29.34V155.31Zm2.24,13.25a2.14,2.14,0,0,1,.41,4.26,2.8,2.8,0,0,1-.41,0h-.22V168.5Z"/><path class="cls-1" d="M352.36,33.32V46.24c-.18,1.24-9.27,2.24-20.49,2.24s-20.3-1-20.48-2.24V33.32a85.89,85.89,0,0,0,20.48,1.84A86,86,0,0,0,352.36,33.32Zm-2.52,15.12a107.2,107.2,0,0,1-18,1.17,107.27,107.27,0,0,1-18-1.17c-1.6.32-2.51.7-2.51,1.09,0,1.26,9.17,2.28,20.48,2.28s20.49-1,20.49-2.28c0-.39-.92-.77-2.52-1.09ZM350.58,31a96.91,96.91,0,0,1-18.71,1.36A97,97,0,0,1,313.16,31c-1.14.28-1.77.6-1.77.94,0,1.26,9.17,2.27,20.48,2.27s20.49-1,20.49-2.27C352.36,31.55,351.72,31.23,350.58,31ZM331.87,12.18c11.32,0,20.49,1,20.49,2.28s-9.17,2.28-20.49,2.28-20.56-1-20.56-2.28,9.17-2.28,20.48-2.28ZM352.36,51V64c-.18,1.24-9.27,2.23-20.49,2.23s-20.3-1-20.48-2.23V51a85.89,85.89,0,0,0,20.48,1.84A86,86,0,0,0,352.36,51Zm0-35.11V28.77h0C352.18,30,343.09,31,331.87,31s-20.3-1-20.56-2.24h0V15.88a87.51,87.51,0,0,0,20.48,1.83A87.7,87.7,0,0,0,352.36,15.86Z"/><path class="cls-1" d="M386,40.76v10c-.14,1-7.18,1.74-15.85,1.74s-15.71-.78-15.85-1.74v-10a89.32,89.32,0,0,0,31.7,0Zm-2,11.67a105.18,105.18,0,0,1-27.8,0c-1.24.26-2,.54-2,.86,0,1,7.09,1.76,15.85,1.76s15.85-.8,15.85-1.76c0-.32-.7-.6-2-.86Zm.56-13.51a100.94,100.94,0,0,1-28.94,0c-.88.22-1.38.46-1.38.72,0,1,7.09,1.76,15.85,1.76s15.85-.8,15.85-1.76c0-.26-.5-.5-1.38-.72ZM370.09,24.39c8.75,0,15.85.78,15.85,1.76s-7.1,1.76-15.85,1.76-15.85-.78-15.85-1.76S361.33,24.39,370.09,24.39Zm15.85,30v10h0c-.14.95-7.18,1.73-15.85,1.73s-15.71-.78-15.85-1.73h0v-10a89.32,89.32,0,0,0,31.7,0Zm0-27.18v10h0c-.14,1-7.18,1.74-15.85,1.74s-15.71-.78-15.85-1.74h0v-10a89.32,89.32,0,0,0,31.7,0Z"/><path class="cls-1" d="M309.45,40.76v10c-.14,1-7.18,1.74-15.85,1.74s-15.71-.78-15.85-1.74v-10a67.51,67.51,0,0,0,15.85,1.42A68,68,0,0,0,309.45,40.76Zm-2,11.67a105.18,105.18,0,0,1-27.8,0c-1.24.26-2,.54-2,.86,0,1,7.09,1.76,15.85,1.76s15.85-.8,15.85-1.76c0-.32-.7-.6-2-.86ZM308,38.92a100.94,100.94,0,0,1-28.94,0c-.88.22-1.38.46-1.38.72,0,1,7.09,1.76,15.85,1.76s15.85-.8,15.85-1.76c0-.26-.5-.5-1.38-.72ZM293.56,24.39c8.75,0,15.85.78,15.85,1.76s-7.1,1.76-15.85,1.76-15.85-.78-15.85-1.76S284.8,24.39,293.56,24.39Zm15.85,30v10h0c-.14.95-7.18,1.73-15.85,1.73s-15.71-.78-15.85-1.73h0v-10a67.51,67.51,0,0,0,15.85,1.42A67.51,67.51,0,0,0,309.41,54.37Zm0-27.18v10h0c-.14,1-7.18,1.74-15.85,1.74s-15.71-.78-15.85-1.74h0v-10a68,68,0,0,0,15.85,1.42,67.86,67.86,0,0,0,15.89-1.38Z"/></g></g></svg>